<svg xmlns="http://www.w3.org/2000/svg" viewBox="0 0 223.83 106.93"><defs><style>.cls-1{fill:#fff;}.cls-2{fill:#006a8e;}.cls-3{fill:#94cee1;}</style></defs><title>Asset 2</title><g id="Layer_2" data-name="Layer 2"><g id="Layer_1-2" data-name="Layer 1"><rect class="cls-1" width="223.83" height="106.93"/><path class="cls-2" d="M98.25,88.3V84.8h1a2.18,2.18,0,0,1,.72.12,1.72,1.72,0,0,1,.59.34,1.64,1.64,0,0,1,.55,1.26,2,2,0,0,1-.12.7,1.78,1.78,0,0,1-.33.57,1.68,1.68,0,0,1-.53.37,1.74,1.74,0,0,1-.69.14Zm.51-.44h.72a1,1,0,0,0,.44-.1,1.24,1.24,0,0,0,.36-.29,1.27,1.27,0,0,0,.25-.42,1.55,1.55,0,0,0,.09-.53,1.46,1.46,0,0,0-.09-.52,1.18,1.18,0,0,0-.25-.4,1.14,1.14,0,0,0-.36-.26,1,1,0,0,0-.44-.1h-.72Z"/><path class="cls-2" d="M105.54,87.86H107v.44h-2V84.8h2l-.08.45h-1.38v1h1.33v.44h-1.33Z"/><path class="cls-2" d="M113.64,88.3H113l-1.6-2.87V88.3h-.5V84.8h.69l1.54,2.8V84.8h.5Z"/><path class="cls-2" d="M119.93,84.8v.45h-1.09v3h-.5v-3h-1.09V84.8Z"/><path class="cls-2" d="M125.9,88.3l-.37-.89h-1.79l-.37.89h-.49l1.49-3.5h.53l1.48,3.5Zm-2-1.31h1.47l-.73-1.71Z"/><path class="cls-2" d="M132,88.3h-2V84.8h.5v3.06H132Z"/><path class="cls-2" d="M119.39,75.81h-.85c-1.29,0-1.23-.3-1.23-2.34V55.89a.25.25,0,0,0-.25-.25H109.9a.24.24,0,0,0-.24.25v.38a.24.24,0,0,0,.24.25h.85c2,0,2.25.3,2.25,2.33V69.07c0,3.31-2.11,6.83-6,6.83s-5.3-2.56-5.3-6.66V55.89a.25.25,0,0,0-.25-.25H94.27a.25.25,0,0,0-.25.25v.38a.25.25,0,0,0,.25.25h.85c2,0,2.29.3,2.29,2.33v9.88c0,5.11,3.37,8.17,9,8.17A7.08,7.08,0,0,0,113,73V76.4a.25.25,0,0,0,.25.24h6.14a.25.25,0,0,0,.25-.24v-.34A.25.25,0,0,0,119.39,75.81Z"/><path class="cls-2" d="M130.47,56.18c2.32-.34,4.74.68,4.76,5.71-.87,1.53-2.84,2.6-5.68,3.08-4.56.76-9,1.91-8.81,6.65.13,3.63,3.75,5.29,7.07,5.29l.52,0c3.85-.2,6-3.09,6.9-5.44V73c0,2.5,1.34,3.94,3.67,3.94a5.4,5.4,0,0,0,4.23-2.57.25.25,0,0,0,0-.33l-.21-.17a.25.25,0,0,0-.19,0,.25.25,0,0,0-.17.11A3.29,3.29,0,0,1,140,75.72h-.16c-.41,0-.29-.28-.35-2.49V63.39c0-5.34-3.71-8-8.93-8a13.72,13.72,0,0,0-6.66,2.07,1.92,1.92,0,0,0-.89,1.27,1.12,1.12,0,0,0,.24.91,2.34,2.34,0,0,0,3.13.48C127.75,59.16,128.67,56.44,130.47,56.18Zm-1,19.55c-.24,0-.49,0-.73,0-2.29,0-3.84-1.44-3.95-4.34-.12-3.1,1.35-4.8,4.37-5.54,3.88-1,5.24-1.84,6.11-2.78v4.61C135.23,71.24,132.85,75.39,129.43,75.73Z"/><path class="cls-2" d="M138.81,84c.05,1.3,1.8,1.46,2.4,1.53a9.59,9.59,0,0,0,1.17.08c3.87,0,6.83-2.8,9.59-9.08L159.38,59c.71-1.72,1.29-2.43,3-2.43h.34a.25.25,0,0,0,.24-.25v-.38a.25.25,0,0,0-.24-.25h-6a.25.25,0,0,0-.24.25v.38a.25.25,0,0,0,.24.25h.09c1.12,0,1.68.13,1.88.43s.11.87-.29,1.81L153.31,71l-5.45-12.23c-.4-.93-.62-1.61-.42-1.9s.65-.34,1.55-.34h.59a.25.25,0,0,0,.25-.25v-.38a.25.25,0,0,0-.25-.25h-9.87a.25.25,0,0,0-.25.25v.38a.25.25,0,0,0,.25.25h.46c2,0,2.55.38,3.38,2.43L151,76.39c-2.58,5.68-4.49,6.23-7.1,6.23a8,8,0,0,1-2.39-.4C139.7,81.64,138.76,82.66,138.81,84Z"/><path class="cls-2" d="M75.1,80.4c.6,0,1.18.07,1.74.07,9.45,0,16-6.3,16-15.33s-6.6-15.36-16-15.36-16,6.32-16,15.36c0,8,5.29,14,13.22,15.13Zm1.74-29.63c7.56,0,10.51,5.78,10.51,14.37S84.4,79.52,76.84,79.52,66.33,73.74,66.33,65.14,69.28,50.77,76.84,50.77Z"/><path class="cls-2" d="M92.77,80.69l-.21-.12a.24.24,0,0,0-.33.07A6.1,6.1,0,0,1,87,83.33a10.83,10.83,0,0,1-4.34-1l-.13-.05C79,80.68,77.18,79.92,74,80.48a15.46,15.46,0,0,0-5.09,1.86,1.13,1.13,0,0,0,1.81.29,6,6,0,0,1,3.39-1.25c1.55,0,2.84.87,4.21,1.79A14.32,14.32,0,0,0,81.46,85a9.75,9.75,0,0,0,3.38.62,9.27,9.27,0,0,0,8-4.55A.25.25,0,0,0,92.77,80.69Z"/><path class="cls-3" d="M111.89,12.15c-10.26,0-17.43,6.88-17.43,16.74,0,8.69,5.76,15.24,14.4,16.48l1.15.13c.65,0,1.28.09,1.88.09,10.3,0,17.48-6.87,17.48-16.7S122.19,12.15,111.89,12.15Zm-3.74,9a3.11,3.11,0,0,1,1.72.15l.26.13a4.1,4.1,0,0,0,3.27,0l.27-.13a3.07,3.07,0,0,1,1.71-.15,3.24,3.24,0,0,1,1.77,1l0,0A6,6,0,0,1,112,24.86a10.76,10.76,0,0,1-4.33-1l-.12,0-1.72-.73A3.23,3.23,0,0,1,108.15,21.19Zm9.8,4c0,.12-.07.23-.1.34l-.12.28c-1.11,2.92-1.07,5.86-1,8.93v.13a1.7,1.7,0,0,1-1.41,1.7,1.63,1.63,0,0,1-1.85-1,1.16,1.16,0,0,1-.08-.32c-.25-1-.36-1.49-.55-2.49,0-.07,0-.11,0-.19a1.1,1.1,0,0,0-2.19,0c0,.08,0,.12,0,.19-.2,1.05-.31,1.57-.58,2.6,0,0,0,.06,0,.1a1.64,1.64,0,0,1-1.9,1.14A1.72,1.72,0,0,1,106.73,35a1.66,1.66,0,0,1,0-.32,22.88,22.88,0,0,0-.78-8.33l.42.17a9.9,9.9,0,0,0,3.36.61,9.31,9.31,0,0,0,7.86-4.28A3.31,3.31,0,0,1,118,25.19Z"/></g></g></svg>